
    <svg
      width="38"
      height="38"
      viewBox="0 0 38 38"
      fill="none"
      xmlns="http://www.w3.org/2000/svg"
    >
      <path
        d="M31.4501 37.5251H6.52063C4.91582 37.5213 3.37802 36.8812 2.24458 35.7451C1.11114 34.6089 0.474605 33.0697 0.474609 31.4648V6.53534C0.474609 4.92806 1.1131 3.38662 2.24961 2.2501C3.38613 1.11359 4.92758 0.475098 6.53485 0.475098H31.4644C33.0716 0.475098 34.6131 1.11359 35.7496 2.2501C36.8861 3.38662 37.5246 4.92806 37.5246 6.53534V31.4648C37.5246 32.2619 37.3674 33.0511 37.0619 33.7873C36.7565 34.5235 36.3088 35.1922 35.7446 35.7551C35.1803 36.318 34.5106 36.7641 33.7737 37.0679C33.0367 37.3716 32.2472 37.527 31.4501 37.5251ZM6.52063 2.26187C5.38874 2.26187 4.30322 2.71151 3.50285 3.51188C2.70249 4.31224 2.25285 5.39776 2.25285 6.52965V31.4591C2.25285 32.591 2.70249 33.6766 3.50285 34.4769C4.30322 35.2773 5.38874 35.7269 6.52063 35.7269H31.4501C32.582 35.7269 33.6675 35.2773 34.4679 34.4769C35.2683 33.6766 35.7179 32.591 35.7179 31.4591V6.53534C35.7179 5.40346 35.2683 4.31793 34.4679 3.51757C33.6675 2.7172 32.582 2.26756 31.4501 2.26756L6.52063 2.26187Z"
        fill="white"
      />
      <path
        d="M21.2186 21.4795V22.0044C21.2186 25.6412 19.2205 27.2041 16.1983 27.2041C13.176 27.2041 11.1501 25.6412 11.1501 22.0044V9.47485H8.47852V21.9765C8.47852 27.1172 11.9412 29.4773 16.1704 29.4773C20.3963 29.4773 23.8901 27.1172 23.8901 21.9765V21.48H21.2186V21.4795Z"
        fill="white"
      />
      <path
        d="M29.3306 16.3884H20.9316V19.0208H29.3306V16.3884Z"
        fill="white"
      />
      <path d="M31.4575 9.47363H20.9316V12.106H31.4575V9.47363Z" fill="white" />
    </svg>
