<svg width="300" height="78" viewBox="0 0 300 78" fill="none" xmlns="http://www.w3.org/2000/svg">
<path d="M0 0H275C288.807 0 300 11.1929 300 25V77.0455H0V0Z" fill="url(#paint0_linear_630_6329)"/>
<path d="M70.9718 57.0455H46.0453C44.4407 57.0418 42.9031 56.4017 41.7698 55.2657C40.6365 54.1297 40 52.5906 40 50.986V26.0595C40 24.4524 40.6384 22.9112 41.7748 21.7748C42.9112 20.6384 44.4524 20 46.0595 20H70.986C72.5931 20 74.1344 20.6384 75.2707 21.7748C76.4071 22.9112 77.0455 24.4524 77.0455 26.0595V50.986C77.0455 51.783 76.8883 52.5721 76.5829 53.3082C76.2775 54.0443 75.8299 54.7129 75.2657 55.2758C74.7015 55.8386 74.0319 56.2847 73.295 56.5884C72.5582 56.892 71.7687 57.0474 70.9718 57.0455ZM46.0453 21.7866C44.9135 21.7866 43.8281 22.2361 43.0279 23.0364C42.2276 23.8367 41.778 24.9221 41.778 26.0538V50.9803C41.778 52.1121 42.2276 53.1975 43.0279 53.9977C43.8281 54.798 44.9135 55.2476 46.0453 55.2476H70.9718C72.1035 55.2476 73.1889 54.798 73.9892 53.9977C74.7895 53.1975 75.2391 52.1121 75.2391 50.9803V26.0595C75.2391 24.9278 74.7895 23.8424 73.9892 23.0421C73.1889 22.2418 72.1035 21.7923 70.9718 21.7923L46.0453 21.7866Z" />
<defs>
<linearGradient id="paint0_linear_630_6329" x1="150" y1="0" x2="150" y2="77.0455" gradientUnits="userSpaceOnUse">
<stop stop-color="#FAE892"/>
<stop offset="1" stop-color="#B3903E"/>
</linearGradient>
</defs>
</svg>
